<svg width="28" height="28" viewBox="0 0 28 28" xmlns="http://www.w3.org/2000/svg">
    <g fill="none" fill-rule="evenodd">
        <path d="M28 0H0v28h28z"/>
        <path d="M13.994 4.667a9.17 9.17 0 0 0-6.576 2.751 9.17 9.17 0 0 0-2.751 6.576c0 2.472.979 4.85 2.751 6.577a9.17 9.17 0 0 0 6.576 2.751c1.866 0 3.685-.56 5.224-1.586l3.265 1.54a.595.595 0 0 0 .792-.793l-1.539-3.265a9.428 9.428 0 0 0 1.586-5.224 9.17 9.17 0 0 0-2.751-6.576 9.17 9.17 0 0 0-6.576-2.751zm0 1.166a8.19 8.19 0 0 1 5.784 2.378 8.19 8.19 0 0 1 2.378 5.783c0 1.726-.56 3.405-1.586 4.804a.573.573 0 0 0-.046.607l.979 2.098-2.099-.98a.573.573 0 0 0-.606.048 8.124 8.124 0 0 1-4.804 1.585 8.19 8.19 0 0 1-5.783-2.378 8.19 8.19 0 0 1-2.378-5.783A8.19 8.19 0 0 1 8.21 8.21a8.19 8.19 0 0 1 5.783-2.378z" fill="#333" fill-rule="nonzero"/>
    </g>
</svg>
