<svg width="28" height="28" viewBox="0 0 28 28" xmlns="http://www.w3.org/2000/svg">
    <g fill="none" fill-rule="evenodd">
        <path d="M0 0h28v28H0z"/>
        <path d="M14 4.667C8.85 4.667 4.667 8.85 4.667 14S8.85 23.333 14 23.333 23.333 19.15 23.333 14 19.15 4.667 14 4.667zm0 .848A8.479 8.479 0 0 1 22.485 14 8.479 8.479 0 0 1 14 22.485 8.479 8.479 0 0 1 5.515 14 8.479 8.479 0 0 1 14 5.515zM10.394 9.97c-.932 0-1.697.764-1.697 1.696 0 .933.765 1.697 1.697 1.697s1.697-.764 1.697-1.697c0-.932-.765-1.696-1.697-1.696zm7.212 0c-.932 0-1.697.764-1.697 1.696 0 .933.765 1.697 1.697 1.697s1.697-.764 1.697-1.697c0-.932-.765-1.696-1.697-1.696zm-7.212.848c.474 0 .848.375.848.848a.842.842 0 0 1-.848.849.842.842 0 0 1-.849-.849c0-.473.375-.848.849-.848zm7.212 0c.474 0 .849.375.849.848a.842.842 0 0 1-.849.849.842.842 0 0 1-.848-.849c0-.473.374-.848.848-.848zm1.876 4.62a.424.424 0 0 0-.358.312c-.573 1.426-2.246 3.129-5.124 3.129-2.878 0-4.551-1.703-5.124-3.129a.424.424 0 0 0-.437-.272.424.424 0 0 0-.345.584c.7 1.741 2.692 3.665 5.906 3.665 3.215 0 5.207-1.924 5.907-3.665a.424.424 0 0 0-.424-.624z" fill="#333" fill-rule="nonzero"/>
    </g>
</svg>
